<svg width="20" height="20" viewBox="0 0 20 20" fill="none" xmlns="http://www.w3.org/2000/svg">
<g clip-path="url(#clip0_267_28098)">
<g filter="url(#filter0_d_267_28098)">
<path d="M16.9757 1.09375H6.34633C6.22201 1.09375 6.10279 1.14314 6.01488 1.23104C5.92697 1.31895 5.87758 1.43818 5.87758 1.5625C5.87758 1.68682 5.92697 1.80605 6.01488 1.89396C6.10279 1.98186 6.22201 2.03125 6.34633 2.03125H16.9757C17.2389 2.0315 17.4912 2.13613 17.6773 2.3222C17.8635 2.50827 17.9682 2.76057 17.9685 3.02375V13.6534C17.9685 13.7778 18.0179 13.897 18.1058 13.9849C18.1937 14.0728 18.313 14.1222 18.4373 14.1222C18.5616 14.1222 18.6808 14.0728 18.7687 13.9849C18.8566 13.897 18.906 13.7778 18.906 13.6534V3.02375C18.9054 2.51201 18.7019 2.02139 18.34 1.65956C17.9781 1.29773 17.4875 1.09425 16.9757 1.09375ZM17.307 15.1834C17.2177 15.0983 17.0991 15.0508 16.9757 15.0508C16.8524 15.0508 16.7337 15.0983 16.6445 15.1834C16.5566 15.2713 16.5072 15.3905 16.5072 15.5148C16.5072 15.6391 16.5566 15.7583 16.6445 15.8463L17.3057 16.5075H4.48477C4.22159 16.5072 3.96929 16.4025 3.78322 16.2163C3.59716 16.0302 3.49252 15.7779 3.49227 15.5147V2.69406L4.15352 3.35531C4.24279 3.44044 4.36142 3.48793 4.48477 3.48793C4.60813 3.48793 4.72675 3.44044 4.81602 3.35531C4.9039 3.26741 4.95326 3.1482 4.95326 3.02391C4.95326 2.89961 4.9039 2.7804 4.81602 2.6925L3.35508 1.23094C3.26579 1.14572 3.14711 1.09817 3.02368 1.09817C2.90025 1.09817 2.78156 1.14572 2.69227 1.23094L1.23071 2.6925C1.143 2.78043 1.09375 2.89956 1.09375 3.02375C1.09375 3.14794 1.143 3.26707 1.23071 3.355C1.32 3.44022 1.43868 3.48777 1.56211 3.48777C1.68554 3.48777 1.80423 3.44022 1.89352 3.355L2.55477 2.69406V15.5147C2.55527 16.0264 2.75876 16.5171 3.12058 16.879C3.48241 17.2409 3.97303 17.4444 4.48477 17.445H17.306L16.6445 18.1059C16.6009 18.1495 16.5664 18.2011 16.5428 18.258C16.5192 18.3149 16.5071 18.3758 16.5071 18.4374C16.5071 18.499 16.5192 18.5599 16.5427 18.6168C16.5663 18.6737 16.6008 18.7254 16.6443 18.7689C16.6878 18.8124 16.7395 18.847 16.7964 18.8706C16.8532 18.8941 16.9142 18.9063 16.9758 18.9063C17.0373 18.9063 17.0983 18.8942 17.1552 18.8706C17.212 18.8471 17.2637 18.8126 17.3073 18.7691L18.7688 17.3075C18.8566 17.2196 18.9059 17.1005 18.9059 16.9763C18.9059 16.852 18.8566 16.7329 18.7688 16.645L17.307 15.1834Z" fill="#00FFD4"/>
<path d="M12.1122 13.1751C12.2365 13.1749 12.3556 13.1255 12.4435 13.0376C12.5313 12.9497 12.5808 12.8306 12.5809 12.7063V8.18572C12.5818 7.82353 12.4727 7.46962 12.2681 7.17076C12.0635 6.87189 11.773 6.64216 11.435 6.51192C11.0971 6.38168 10.7275 6.35706 10.3753 6.44133C10.023 6.52559 9.70463 6.71477 9.46219 6.98385C9.29468 6.79844 9.0903 6.65005 8.86214 6.54818C8.63398 6.44632 8.38706 6.39322 8.13719 6.39229C7.83712 6.39219 7.54211 6.46947 7.28063 6.61666C7.27434 6.49476 7.22076 6.38011 7.13127 6.29711C7.04177 6.2141 6.92343 6.16927 6.8014 6.17216C6.67937 6.17505 6.56328 6.22543 6.47782 6.31258C6.39235 6.39973 6.34425 6.51679 6.34375 6.63885V12.7063C6.34375 12.8307 6.39314 12.9499 6.48104 13.0378C6.56895 13.1257 6.68818 13.1751 6.8125 13.1751C6.93682 13.1751 7.05605 13.1257 7.14396 13.0378C7.23186 12.9499 7.28125 12.8307 7.28125 12.7063V8.18572C7.28125 7.95863 7.37146 7.74084 7.53204 7.58026C7.69262 7.41968 7.91041 7.32947 8.1375 7.32947C8.36459 7.32947 8.58238 7.41968 8.74296 7.58026C8.90354 7.74084 8.99375 7.95863 8.99375 8.18572V12.7063C8.99375 12.8307 9.04314 12.9499 9.13104 13.0378C9.21895 13.1257 9.33818 13.1751 9.4625 13.1751C9.58682 13.1751 9.70605 13.1257 9.79396 13.0378C9.88186 12.9499 9.93125 12.8307 9.93125 12.7063V8.18572C9.93553 7.9615 10.0276 7.74792 10.1877 7.59086C10.3478 7.43381 10.5631 7.34583 10.7873 7.34583C11.0116 7.34583 11.2269 7.43381 11.387 7.59086C11.5471 7.74792 11.6392 7.9615 11.6434 8.18572V12.7063C11.6436 12.8306 11.693 12.9497 11.7809 13.0376C11.8688 13.1255 11.9879 13.1749 12.1122 13.1751ZM15.7669 6.66197L15.8413 6.56041C15.9956 6.33326 16.0782 6.06503 16.0784 5.79041C16.0784 5.42292 15.9325 5.07048 15.6726 4.81063C15.4127 4.55077 15.0603 4.40479 14.6928 4.40479C14.3253 4.40479 13.9729 4.55077 13.713 4.81063C13.4532 5.07048 13.3072 5.42292 13.3072 5.79041C13.3072 5.91473 13.3566 6.03396 13.4445 6.12187C13.5324 6.20977 13.6516 6.25916 13.7759 6.25916C13.9003 6.25916 14.0195 6.20977 14.1074 6.12187C14.1953 6.03396 14.2447 5.91473 14.2447 5.79041C14.2451 5.72233 14.261 5.65522 14.2912 5.5942C14.3214 5.53318 14.3651 5.47984 14.4189 5.43823C14.4728 5.39662 14.5355 5.36784 14.6022 5.35407C14.6689 5.3403 14.7378 5.34191 14.8038 5.35876C14.8697 5.37562 14.931 5.40729 14.9829 5.45136C15.0348 5.49543 15.0759 5.55075 15.1033 5.61312C15.1306 5.67548 15.1433 5.74325 15.1406 5.81128C15.1378 5.8793 15.1195 5.9458 15.0872 6.00572L13.6259 7.57447C13.5475 7.65851 13.4952 7.76362 13.4756 7.87692C13.456 7.99022 13.4699 8.10678 13.5156 8.21229C13.5613 8.31781 13.6368 8.40769 13.7328 8.47092C13.8289 8.53414 13.9413 8.56796 14.0563 8.56822H15.5806C15.7049 8.56822 15.8242 8.51884 15.9121 8.43093C16 8.34302 16.0494 8.22379 16.0494 8.09947C16.0494 7.97515 16 7.85592 15.9121 7.76802C15.8242 7.68011 15.7049 7.63072 15.5806 7.63072H14.8597L15.7325 6.7026C15.7447 6.6901 15.7563 6.67604 15.7669 6.66197Z" fill="#00FFD4"/>
</g>
</g>
<defs>
<filter id="filter0_d_267_28098" x="-4.90625" y="-4.90625" width="29.8125" height="29.8125" filterUnits="userSpaceOnUse" color-interpolation-filters="sRGB">
<feFlood flood-opacity="0" result="BackgroundImageFix"/>
<feColorMatrix in="SourceAlpha" type="matrix" values="0 0 0 0 0 0 0 0 0 0 0 0 0 0 0 0 0 0 127 0" result="hardAlpha"/>
<feOffset/>
<feGaussianBlur stdDeviation="3"/>
<feComposite in2="hardAlpha" operator="out"/>
<feColorMatrix type="matrix" values="0 0 0 0 0 0 0 0 0 1 0 0 0 0 0.831373 0 0 0 1 0"/>
<feBlend mode="normal" in2="BackgroundImageFix" result="effect1_dropShadow_267_28098"/>
<feBlend mode="normal" in="SourceGraphic" in2="effect1_dropShadow_267_28098" result="shape"/>
</filter>
<clipPath id="clip0_267_28098">
<rect width="20" height="20" fill="white"/>
</clipPath>
</defs>
</svg>
