<svg width="20" height="20" viewBox="0 0 20 20" fill="none" xmlns="http://www.w3.org/2000/svg">
<path d="M10 20C11.9778 20 13.9112 19.4135 15.5557 18.3147C17.2002 17.2159 18.4819 15.6541 19.2388 13.8268C19.9957 11.9996 20.1937 9.98891 19.8078 8.0491C19.422 6.10929 18.4696 4.32746 17.0711 2.92894C15.6725 1.53041 13.8907 0.578004 11.9509 0.192152C10.0111 -0.193701 8.00042 0.00433306 6.17316 0.761209C4.3459 1.51809 2.78412 2.79981 1.6853 4.4443C0.58649 6.08879 0 8.02219 0 10C0.00307968 12.6512 1.05764 15.193 2.93233 17.0677C4.80703 18.9424 7.34878 19.9969 10 20ZM10 1.09091C11.762 1.09091 13.4845 1.61342 14.9496 2.59237C16.4147 3.57131 17.5566 4.96272 18.2309 6.59064C18.9052 8.21856 19.0817 10.0099 18.7379 11.7381C18.3941 13.4663 17.5456 15.0537 16.2997 16.2997C15.0537 17.5456 13.4663 18.3941 11.7381 18.7379C10.0099 19.0817 8.21856 18.9052 6.59064 18.2309C4.96271 17.5566 3.5713 16.4147 2.59236 14.9496C1.61342 13.4845 1.09091 11.7621 1.09091 10C1.0936 7.63799 2.0331 5.3735 3.7033 3.7033C5.37349 2.03311 7.63799 1.09361 10 1.09091Z" fill="#00FFD4"/>
<path d="M6.36333 11.6364C6.21866 11.6364 6.07992 11.6939 5.97763 11.7962C5.87534 11.8984 5.81787 12.0372 5.81787 12.1818C5.81787 12.3265 5.87534 12.4653 5.97763 12.5675C6.07992 12.6698 6.21866 12.7273 6.36333 12.7273H7.99969V14.3637C7.99969 14.5083 8.05716 14.6471 8.15945 14.7494C8.26174 14.8517 8.40048 14.9091 8.54514 14.9091C8.68981 14.9091 8.82855 14.8517 8.93084 14.7494C9.03313 14.6471 9.0906 14.5083 9.0906 14.3637V12.7273H11.4542C11.5989 12.7273 11.7376 12.6698 11.8399 12.5675C11.9422 12.4653 11.9997 12.3265 11.9997 12.1818C11.9997 12.0372 11.9422 11.8984 11.8399 11.7962C11.7376 11.6939 11.5989 11.6364 11.4542 11.6364H9.0906V10.5455H11.4542C12.1776 10.5455 12.8712 10.2582 13.3827 9.74669C13.8942 9.23523 14.1815 8.54153 14.1815 7.81821C14.1815 7.0949 13.8942 6.4012 13.3827 5.88974C12.8712 5.37828 12.1776 5.09094 11.4542 5.09094H8.54514C8.40048 5.09094 8.26174 5.14841 8.15945 5.2507C8.05716 5.35299 7.99969 5.49173 7.99969 5.6364V9.45458H6.36333C6.21866 9.45458 6.07992 9.51204 5.97763 9.61434C5.87534 9.71663 5.81787 9.85537 5.81787 10C5.81787 10.1447 5.87534 10.2834 5.97763 10.3857C6.07992 10.488 6.21866 10.5455 6.36333 10.5455H7.99969V11.6364H6.36333ZM9.0906 6.18185H11.4542C11.8882 6.18185 12.3044 6.35425 12.6113 6.66113C12.9182 6.96801 13.0906 7.38422 13.0906 7.81821C13.0906 8.25221 12.9182 8.66842 12.6113 8.9753C12.3044 9.28218 11.8882 9.45458 11.4542 9.45458H9.0906V6.18185Z" fill="#00FFD4"/>
</svg>
