<svg width="18" height="20" viewBox="0 0 18 20" fill="none" xmlns="http://www.w3.org/2000/svg">
<path d="M13.8158 0.464027C10.576 -0.154676 7.21165 -0.154676 3.97186 0.464027C2.53887 0.773378 0.732068 2.50574 0.42055 3.86689C-0.140183 6.52731 -0.140183 9.2496 0.42055 11.91C0.794372 13.2712 2.60118 15.0035 3.97186 15.3129C4.03416 15.3129 4.09646 15.3747 4.09646 15.4366V19.3344C4.09646 19.5201 4.34568 19.6438 4.47029 19.4582L6.3394 17.5402C6.3394 17.5402 7.83468 15.9935 8.0839 15.746C8.0839 15.746 8.14621 15.6841 8.20851 15.6841C10.0776 15.746 12.009 15.5604 13.8781 15.251C15.3111 14.9417 17.1179 13.2093 17.4294 11.8481C17.9902 9.18773 17.9902 6.46544 17.4294 3.80502C17.0556 2.50574 15.2488 0.773378 13.8158 0.464027ZM13.8781 12.0956C13.5666 12.7143 13.1928 13.2093 12.5698 13.5186C12.3829 13.5805 12.1959 13.6424 12.009 13.7043C11.7598 13.6424 11.5729 13.5805 11.386 13.5186C9.39228 12.7143 7.52317 11.6007 6.02788 9.99204C5.21793 9.06399 4.53259 8.01219 3.97186 6.89853C3.72264 6.3417 3.47343 5.84674 3.28652 5.2899C3.09961 4.79494 3.41112 4.29998 3.72264 3.92876C4.03416 3.55754 4.40798 3.31006 4.84411 3.12445C5.15563 2.93883 5.46715 3.06258 5.71636 3.31006C6.21479 3.92876 6.71322 4.54746 7.08704 5.22803C7.33626 5.66112 7.27395 6.15609 6.83783 6.46544C6.71322 6.52731 6.65091 6.58918 6.52631 6.71292C6.464 6.77479 6.3394 6.83666 6.27709 6.9604C6.15248 7.14601 6.15248 7.33162 6.21479 7.51723C6.71322 8.94025 7.64777 10.0539 9.08076 10.6726C9.32997 10.7964 9.51689 10.8582 9.8284 10.8582C10.2645 10.7964 10.4514 10.3014 10.763 10.0539C11.0745 9.80643 11.4483 9.80643 11.8221 9.99204C12.1336 10.1777 12.4452 10.4251 12.819 10.6726C13.1305 10.9201 13.442 11.1057 13.7535 11.3532C13.9404 11.4769 14.0027 11.7863 13.8781 12.0956ZM11.2614 7.45536C11.1368 7.45536 11.1991 7.45536 11.2614 7.45536C11.0122 7.45536 10.9499 7.33162 10.8876 7.14601C10.8876 7.02227 10.8876 6.83666 10.8253 6.71292C10.763 6.46544 10.6384 6.21796 10.3891 6.03235C10.2645 5.97048 10.1399 5.90861 10.0153 5.84674C9.8284 5.78486 9.7038 5.78487 9.51689 5.78487C9.32997 5.723 9.26767 5.59925 9.26767 5.41364C9.26767 5.2899 9.45458 5.16616 9.57919 5.16616C10.576 5.22803 11.3237 5.78486 11.4483 6.9604C11.4483 7.02227 11.4483 7.14601 11.4483 7.20788C11.4483 7.33162 11.386 7.45536 11.2614 7.45536ZM10.6383 4.73307C10.3268 4.60933 10.0153 4.48559 9.64149 4.42372C9.51688 4.42372 9.32997 4.36185 9.20537 4.36185C9.01846 4.36185 8.89385 4.23811 8.95615 4.0525C8.95615 3.86689 9.08076 3.74315 9.26767 3.80502C9.89071 3.86689 10.4514 3.99063 11.0122 4.23811C12.1336 4.79494 12.7567 5.72299 12.9436 6.9604C12.9436 7.02227 12.9436 7.08414 12.9436 7.14601C12.9436 7.26975 12.9436 7.39349 12.9436 7.5791C12.9436 7.64097 12.9436 7.70284 12.9436 7.76471C12.8813 8.01219 12.4452 8.07406 12.3829 7.76471C12.3829 7.70284 12.3205 7.5791 12.3205 7.51723C12.3205 6.9604 12.1959 6.40357 11.9467 5.90861C11.5729 5.35177 11.1368 4.98055 10.6383 4.73307ZM14.0027 8.44528C13.8158 8.44528 13.6912 8.25968 13.6912 8.07406C13.6912 7.70284 13.6289 7.33162 13.5666 6.9604C13.3174 4.98055 11.6975 3.37193 9.7661 3.06258C9.45458 3.0007 9.14306 3.00071 8.89385 2.93884C8.70694 2.93884 8.45772 2.93884 8.39542 2.69135C8.33311 2.50574 8.52002 2.32013 8.70694 2.32013C8.76924 2.32013 8.83155 2.32013 8.83155 2.32013C8.95615 2.32013 11.386 2.382 8.83155 2.32013C11.4483 2.382 13.6289 4.11437 14.0651 6.71292C14.1274 7.14601 14.1897 7.5791 14.1897 8.07406C14.3143 8.25968 14.1897 8.44528 14.0027 8.44528Z" fill="white"/>
</svg>
