<svg width="18" height="18" viewBox="0 0 18 18" fill="none" xmlns="http://www.w3.org/2000/svg">
<path d="M15.2378 2.60312C13.5585 0.929687 11.3195 0 8.9561 0C4.04268 0 0.0621942 3.96667 0.0621942 8.86302C0.0621942 10.4125 0.497561 11.962 1.2439 13.2635L0 17.85L4.72683 16.6104C6.03293 17.2922 7.46341 17.6641 8.9561 17.6641C13.8695 17.6641 17.85 13.6974 17.85 8.80104C17.7878 6.50781 16.9171 4.27656 15.2378 2.60312ZM13.2476 12.024C13.061 12.5198 12.1902 13.0156 11.7549 13.0776C11.3817 13.1396 10.8841 13.1396 10.3866 13.0156C10.0756 12.8917 9.64024 12.7677 9.14268 12.5198C6.90366 11.5901 5.47317 9.35885 5.34878 9.17292C5.22439 9.04896 4.41585 7.99531 4.41585 6.87969C4.41585 5.76406 4.97561 5.26823 5.16219 5.02031C5.34878 4.7724 5.59756 4.7724 5.78415 4.7724C5.90854 4.7724 6.09512 4.7724 6.21951 4.7724C6.3439 4.7724 6.53049 4.71042 6.71707 5.14427C6.90366 5.57812 7.33902 6.69375 7.40122 6.75573C7.46341 6.87969 7.46341 7.00365 7.40122 7.1276C7.33902 7.25156 7.27683 7.37552 7.15244 7.49948C7.02805 7.62344 6.90366 7.80937 6.84146 7.87135C6.71707 7.99531 6.59268 8.11927 6.71707 8.30521C6.84146 8.55312 7.27683 9.23489 7.96098 9.85469C8.83171 10.5984 9.51585 10.8464 9.76464 10.9703C10.0134 11.0943 10.1378 11.0323 10.2622 10.9083C10.3866 10.7844 10.822 10.2885 10.9463 10.0406C11.0707 9.79271 11.2573 9.85469 11.4439 9.91667C11.6305 9.97865 12.75 10.5365 12.9366 10.6604C13.1854 10.7844 13.3098 10.8464 13.3719 10.9083C13.4341 11.0943 13.4341 11.5281 13.2476 12.024Z" fill="white"/>
</svg>
