<svg width="460" height="419" viewBox="0 0 460 419" fill="none" xmlns="http://www.w3.org/2000/svg">
<g clip-path="url(#clip0_2033_17464)">
<rect width="460" height="419" rx="16" fill="url(#paint0_radial_2033_17464)" fill-opacity="0.4"/>
<g clip-path="url(#clip1_2033_17464)">
<path d="M341.357 164.389C346.242 162.438 350.765 160.692 354.125 159.496C355.807 158.898 357.187 158.441 358.171 158.165C358.666 158.026 359.043 157.938 359.301 157.898C359.361 157.889 359.41 157.883 359.449 157.88C360.319 158.759 360.765 159.346 361.627 160.375C361.601 160.344 361.615 160.354 361.681 160.485C361.735 160.592 361.805 160.743 361.892 160.937C362.065 161.325 362.296 161.869 362.576 162.548C363.136 163.907 363.888 165.793 364.764 168.035C366.517 172.519 368.763 178.413 370.957 184.317C373.151 190.221 375.292 196.131 376.835 200.648C377.607 202.908 378.228 204.812 378.63 206.19C378.832 206.88 378.976 207.427 379.057 207.816C379.09 207.976 379.109 208.099 379.12 208.187C379.085 208.213 379.043 208.244 378.991 208.279C378.809 208.401 378.548 208.552 378.205 208.733C377.523 209.095 376.564 209.551 375.376 210.088C373.003 211.16 369.759 212.535 366.083 214.078C358.74 217.162 349.687 220.921 342.531 224.27C328.243 230.956 316.968 236.328 304.823 242.903C292.687 249.472 285.94 253.312 274.273 260.698C262.618 268.075 245.958 279.142 234.14 289.086C222.346 299.01 214.618 305.994 205.671 316.522C196.729 327.043 189.06 338.65 185.251 345.399C181.459 352.119 179.023 356.511 176.5 363.209C173.984 369.885 172.777 373.798 171.59 380.854C170.99 384.423 171.035 389.599 171.083 393.872C171.107 396.024 171.132 397.947 171.081 399.36C171.056 400.069 171.012 400.623 170.945 401.003C170.942 401.022 170.937 401.041 170.934 401.059C170.927 401.054 170.919 401.048 170.912 401.042C170.631 400.809 170.258 400.427 169.803 399.908C168.899 398.877 167.738 397.379 166.454 395.634C163.887 392.148 160.862 387.729 158.463 384.214C153.674 377.195 150.208 371.848 146.23 363.69C144.231 359.591 142.234 355.435 140.678 351.674C139.116 347.899 138.025 344.582 137.796 342.148C137.327 337.161 137.712 334.297 138.575 329.305C139.43 324.356 140.997 320.145 142.831 315.374C144.653 310.633 145.9 308.062 148.254 303.542C150.605 299.029 153.365 294.389 156.1 290.436C158.835 286.483 160.567 284.413 163.644 280.683C166.711 276.966 169.522 273.848 172.889 270.255C176.253 266.667 178.241 264.764 181.739 261.275C185.241 257.783 189.046 253.823 193.987 249.343C198.918 244.872 210.33 235.848 221.38 227.927C232.422 220.012 239.102 215.719 250.909 208.595C262.71 201.474 270.991 197.073 283.022 190.854C295.051 184.636 301.848 181.247 314.213 175.749C320.395 173 331.587 168.29 341.357 164.389Z" stroke="url(#paint1_linear_2033_17464)" stroke-width="2"/>
<path d="M191.602 289.708L195.193 284.725L198.392 292.917L194.801 297.9L191.602 289.708Z" fill="#63E293" fill-opacity="0.6"/>
<path d="M185.697 328.801L187.089 324.026L190.839 333.63L189.116 337.558L185.697 328.801Z" fill="#63E293" fill-opacity="0.6"/>
<path d="M181.284 290.808L183.744 286.266L187.274 295.305L184.924 300.13L181.284 290.808Z" fill="#63E293" fill-opacity="0.6"/>
<path d="M211.392 327.883L214.811 323.293L218.12 331.768L214.812 336.641L211.392 327.883Z" fill="#63E293" fill-opacity="0.6"/>
<path d="M219.643 379.515L221.207 374.347L226.887 382.221L225.15 387.783L219.643 379.515Z" fill="#63E293" fill-opacity="0.6"/>
<path d="M218.091 357.432L220.582 351.988L224.801 359.456L222.813 365.355L218.091 357.432Z" fill="#63E293" fill-opacity="0.6"/>
<path d="M608.711 214.944C608.798 215.016 608.899 215.101 609.01 215.2C609.395 215.539 609.893 216.007 610.446 216.547C611.553 217.627 612.864 218.977 613.919 220.117C616.038 222.41 618.1 224.672 620.208 227.968C622.316 231.262 623.391 234.054 624.872 237.441C626.354 240.83 627.303 242.63 628.262 246.116C628.73 247.816 629.099 250.986 629.267 254.715C629.435 258.429 629.402 262.644 629.084 266.411C628.448 273.956 627.558 278.194 625.177 285.387C622.807 292.551 618.993 299.225 614.233 307.139C609.493 315.021 605.474 320.433 600.655 326.389C595.84 332.341 592.725 335.287 587.489 340.951C582.25 346.619 578.335 351.422 571.834 357.46C565.337 363.495 560.129 367.239 552.31 373.202C544.51 379.151 537.851 384.106 528.147 390.438C518.445 396.768 507.707 402.912 495.53 409.349C483.358 415.783 476.378 419.109 463.78 424.672C451.185 430.234 426.963 439.046 421.414 441.213C418.639 442.296 415.429 443.821 412.789 444.986C411.458 445.573 410.275 446.067 409.342 446.382C408.875 446.54 408.489 446.646 408.189 446.699C408.04 446.725 407.923 446.736 407.836 446.736C407.748 446.736 407.714 446.725 407.714 446.725C406.391 446.238 405.831 445.715 404.523 444.877C404.514 444.867 404.503 444.851 404.489 444.831C404.439 444.754 404.372 444.637 404.286 444.474C404.116 444.15 403.897 443.686 403.634 443.094C403.107 441.913 402.417 440.253 401.613 438.25C400.005 434.247 397.947 428.899 395.828 423.317C391.592 412.162 387.109 400.063 385.515 395.979C383.921 391.898 381.875 386.599 380.229 382.355C379.407 380.233 378.684 378.375 378.168 377.066C377.943 376.494 377.756 376.024 377.618 375.683C377.62 375.682 377.623 375.681 377.625 375.681C378.05 375.536 378.671 375.317 379.459 375.031C381.036 374.461 383.301 373.624 386.054 372.592C391.562 370.53 399.035 367.692 406.901 364.661C422.62 358.602 439.946 351.761 446.281 348.813C458.915 342.933 468.049 338.298 478.167 332.778C488.282 327.259 493.875 323.999 503.671 317.932C513.465 311.866 528.977 301.705 540.036 293.301C551.078 284.911 558.695 278.855 567.377 270.557C576.046 262.27 582.801 255.033 588.299 248.022C593.79 241.02 597.86 234.9 601.231 229.254C602.925 226.416 604.791 222.657 606.283 219.649C607.033 218.137 607.685 216.82 608.181 215.887C608.393 215.488 608.571 215.171 608.711 214.944Z" stroke="url(#paint2_linear_2033_17464)" stroke-width="2"/>
<path d="M402.524 329.437C444.546 313.03 486.437 308.069 520.187 313.298C553.946 318.528 579.499 333.937 588.976 358.21C598.453 382.483 590.102 411.13 568.818 437.851C547.539 464.565 513.369 489.301 471.347 505.708C429.325 522.115 387.435 527.076 353.684 521.847C319.925 516.618 294.373 501.208 284.896 476.935C275.418 452.663 283.769 424.016 305.054 397.295C326.333 370.58 360.502 345.844 402.524 329.437Z" stroke="url(#paint3_linear_2033_17464)"/>
<path d="M408.259 344.126C440.761 331.436 473.144 327.564 499.218 331.549C525.301 335.534 545.008 347.366 552.293 366.022C559.577 384.678 553.1 406.733 536.618 427.337C520.141 447.935 493.702 467.03 461.2 479.719C428.699 492.409 396.317 496.281 370.242 492.297C344.159 488.312 324.451 476.48 317.167 457.824C309.883 439.168 316.36 417.113 332.843 396.508C349.319 375.91 375.758 356.816 408.259 344.126Z" stroke="#63E293"/>
<path d="M407.121 338.71C440.792 325.564 474.43 321.784 501.59 326.285C528.758 330.788 549.385 343.562 557.158 363.47C564.931 383.379 558.417 406.751 541.488 428.47C524.563 450.184 497.263 470.197 463.592 483.343C429.922 496.489 396.283 500.27 369.123 495.768C341.956 491.265 321.328 478.491 313.555 458.583C305.782 438.675 312.297 415.303 329.226 393.583C346.15 371.87 373.451 351.857 407.121 338.71Z" stroke="#63E293" stroke-opacity="0.2"/>
<path d="M412.512 354.185C439.318 343.719 466 340.47 487.463 343.662C508.935 346.856 525.119 356.483 531.062 371.706C537.006 386.928 531.627 404.974 517.999 421.873C504.378 438.764 482.553 454.453 455.747 464.919C428.943 475.385 402.26 478.634 380.797 475.442C359.324 472.248 343.141 462.621 337.197 447.398C331.254 432.176 336.633 414.13 350.26 397.232C363.883 380.34 385.707 364.651 412.512 354.185Z" stroke="#63E293"/>
<path d="M416.359 365.705C435.827 358.104 455.25 355.867 470.907 358.379C486.572 360.893 498.407 368.148 502.83 379.474C507.252 390.8 503.463 404.154 493.645 416.618C483.833 429.075 468.033 440.59 448.565 448.191C429.097 455.792 409.674 458.029 394.017 455.517C378.352 453.003 366.516 445.749 362.094 434.423C357.672 423.097 361.461 409.742 371.279 397.278C381.091 384.821 396.891 373.306 416.359 365.705Z" stroke="#63E293"/>
<path d="M427.361 397.22C437.154 393.397 446.88 392.176 454.681 393.281C462.491 394.388 468.302 397.81 470.407 403.202C472.512 408.593 470.558 415.048 465.563 421.154C460.575 427.252 452.595 432.945 442.802 436.768C433.009 440.592 423.283 441.812 415.483 440.707C407.672 439.601 401.861 436.178 399.756 430.787C397.651 425.395 399.605 418.941 404.601 412.835C409.588 406.737 417.568 401.044 427.361 397.22Z" stroke="#63E293"/>
<path d="M421.591 379.94C433.333 375.356 445.068 374.078 454.544 375.705C464.026 377.332 471.19 381.852 473.908 388.813C476.626 395.774 474.42 403.953 468.549 411.575C462.682 419.191 453.186 426.203 441.444 430.788C429.703 435.372 417.967 436.65 408.491 435.024C399.009 433.396 391.845 428.876 389.127 421.915C386.409 414.954 388.615 406.775 394.486 399.153C400.353 391.537 409.85 384.524 421.591 379.94Z" stroke="#63E293"/>
<path d="M423.252 370.627C426.464 369.546 429.642 368.652 432.747 367.945L432.815 368.24C436.149 367.48 439.398 366.936 442.513 366.603L442.48 366.302C445.951 365.931 449.258 365.822 452.335 365.969L452.322 366.27C455.888 366.438 459.138 366.953 461.97 367.802L462.057 367.512C465.608 368.577 468.518 370.167 470.589 372.266L470.374 372.479C471.531 373.652 472.416 374.983 472.998 376.472C473.579 377.962 473.83 379.541 473.774 381.187L474.077 381.197C473.975 384.145 472.912 387.285 471.022 390.475L470.762 390.321C469.255 392.864 467.213 395.445 464.705 397.986L464.918 398.197C462.754 400.39 460.249 402.551 457.444 404.63L457.265 404.386C454.748 406.253 451.99 408.054 449.023 409.754L449.174 410.016C446.411 411.601 443.468 413.097 440.373 414.478L440.25 414.201C438.771 414.861 437.256 415.495 435.709 416.099C434.162 416.703 432.619 417.263 431.083 417.78L431.18 418.067C427.968 419.148 424.79 420.042 421.685 420.749L421.618 420.455C418.284 421.215 415.035 421.758 411.92 422.091L411.952 422.392C408.481 422.763 405.175 422.872 402.097 422.726L402.111 422.425C398.544 422.256 395.295 421.741 392.463 420.892L392.375 421.182C388.824 420.117 385.914 418.528 383.843 416.428L384.059 416.216C382.902 415.043 382.016 413.712 381.435 412.222C380.853 410.733 380.603 409.154 380.659 407.507L380.356 407.497C380.456 404.55 381.52 401.409 383.41 398.219L383.671 398.373C385.178 395.83 387.219 393.25 389.727 390.709L389.513 390.497C391.678 388.304 394.184 386.143 396.987 384.065L397.168 384.308C399.685 382.442 402.442 380.641 405.409 378.94L405.258 378.678C408.021 377.094 410.964 375.598 414.059 374.217L414.182 374.493C415.662 373.834 417.177 373.2 418.724 372.596C420.271 371.992 421.814 371.431 423.35 370.914L423.252 370.627Z" stroke="url(#paint4_linear_2033_17464)" stroke-dasharray="18 18"/>
<path d="M427 378.373C430.766 377.212 434.453 376.404 437.95 375.938L437.991 376.237C442.015 375.701 445.78 375.62 449.117 375.979L449.149 375.679C453.478 376.144 457.101 377.344 459.653 379.248L459.473 379.49C461.018 380.643 462.15 382.053 462.797 383.71C463.444 385.367 463.566 387.171 463.211 389.066L463.508 389.121C462.921 392.251 461.069 395.588 458.201 398.864L457.974 398.665C455.764 401.19 452.94 403.682 449.617 406.014L449.79 406.261C446.901 408.288 443.642 410.192 440.086 411.89L439.957 411.617C438.308 412.404 436.596 413.147 434.826 413.838C433.057 414.529 431.294 415.143 429.548 415.681L429.637 415.97C425.872 417.13 422.185 417.938 418.688 418.404L418.648 418.105C414.623 418.642 410.858 418.723 407.522 418.364L407.489 418.663C403.16 418.198 399.537 416.999 396.985 415.094L397.166 414.852C395.621 413.699 394.489 412.29 393.842 410.633C393.195 408.976 393.073 407.172 393.427 405.277L393.13 405.221C393.716 402.092 395.569 398.754 398.437 395.479L398.664 395.678C400.875 393.153 403.699 390.661 407.022 388.329L406.848 388.082C409.737 386.055 412.996 384.151 416.551 382.453L416.681 382.726C418.33 381.938 420.043 381.195 421.812 380.505C423.581 379.814 425.344 379.2 427.09 378.662L427 378.373Z" stroke="url(#paint5_linear_2033_17464)" stroke-dasharray="18 18"/>
<path d="M431.173 406.149C436.362 404.123 441.512 403.488 445.636 404.083C449.77 404.681 452.805 406.501 453.905 409.319C455.006 412.137 454.006 415.532 451.371 418.773C448.742 422.005 444.524 425.027 439.334 427.053C434.146 429.079 428.996 429.715 424.872 429.119C420.738 428.521 417.702 426.702 416.602 423.884C415.502 421.066 416.501 417.67 419.137 414.43C421.766 411.197 425.984 408.175 431.173 406.149Z" stroke="#00FFD5"/>
<path d="M426.589 395.243C437.737 390.89 448.775 389.615 457.567 390.988C466.411 392.368 472.611 396.336 474.866 402.112C477.121 407.888 475.25 415.007 469.681 422.015C464.145 428.981 455.163 435.523 444.015 439.876C432.868 444.228 421.83 445.503 413.037 444.131C404.193 442.751 397.993 438.783 395.738 433.007C393.483 427.231 395.353 420.111 400.923 413.104C406.46 406.137 415.441 399.595 426.589 395.243Z" stroke="#63E293" stroke-opacity="0.2" stroke-width="6"/>
<path d="M412.94 356.949C429.564 350.458 445.992 348.361 459.072 350.133C472.224 351.915 481.554 357.515 484.86 365.981C488.165 374.447 485.098 384.888 476.633 395.109C468.214 405.276 454.711 414.865 438.087 421.356C421.464 427.846 405.035 429.944 391.954 428.171C378.803 426.389 369.472 420.789 366.167 412.324C362.861 403.858 365.93 393.416 374.394 383.195C382.813 373.028 396.317 363.439 412.94 356.949Z" stroke="#00FFD5" stroke-opacity="0.2" stroke-width="6"/>
<path d="M403.158 334.398C424.425 326.095 445.513 323.318 462.408 325.527C479.316 327.738 491.95 334.926 496.46 346.476C500.97 358.026 496.548 371.873 485.612 384.956C474.683 398.029 457.292 410.275 436.026 418.579C414.76 426.882 393.672 429.658 376.777 427.45C359.868 425.239 347.234 418.051 342.724 406.501C338.215 394.95 342.636 381.103 353.573 368.02C364.502 354.948 381.893 342.701 403.158 334.398Z" stroke="#00FFD5"/>
<path d="M380.5 275.531C415.426 261.894 449.795 256.63 477.121 259.13C504.467 261.632 524.66 271.894 531.418 289.204C538.177 306.513 530.28 327.743 511.863 348.112C493.461 368.466 464.617 387.883 429.691 401.52C394.764 415.156 360.395 420.42 333.069 417.92C305.723 415.419 285.53 405.156 278.772 387.847C272.014 370.538 279.91 349.308 298.327 328.939C316.729 308.584 345.573 289.168 380.5 275.531Z" stroke="url(#paint6_linear_2033_17464)"/>
<path d="M372.876 257.672C410.457 242.999 447.341 237.081 476.587 239.363C505.856 241.647 527.365 252.13 534.396 270.135C541.426 288.141 532.709 310.425 512.732 331.937C492.77 353.432 461.634 374.072 424.052 388.745C386.47 403.419 349.587 409.336 320.341 407.054C291.072 404.77 269.562 394.288 262.532 376.282C255.502 358.276 264.218 335.992 284.196 314.48C304.159 292.985 335.294 272.345 372.876 257.672Z" stroke="url(#paint7_linear_2033_17464)"/>
<path d="M357.999 217.903C396.364 202.924 433.785 196.288 463.266 197.657C478.007 198.341 490.748 201.027 500.627 205.659C510.503 210.289 517.502 216.859 520.801 225.309C524.1 233.759 523.405 243.332 519.279 253.43C515.152 263.53 507.602 274.139 497.224 284.631C476.47 305.613 444.453 326.088 406.088 341.067C367.723 356.046 330.302 362.683 300.821 361.314C286.08 360.63 273.339 357.944 263.461 353.312C253.584 348.681 246.585 342.112 243.286 333.662C239.987 325.212 240.683 315.638 244.809 305.54C248.935 295.44 256.486 284.832 266.863 274.34C287.617 253.358 319.635 232.882 357.999 217.903Z" stroke="url(#paint8_linear_2033_17464)"/>
<path d="M364.424 231.021C394.049 219.454 422.892 214.2 445.569 215.045C456.907 215.468 466.689 217.415 474.253 220.848C481.816 224.281 487.143 229.189 489.619 235.53C492.095 241.872 491.503 249.091 488.267 256.74C485.03 264.39 479.155 272.45 471.103 280.444C454.998 296.431 430.226 312.11 400.601 323.677C370.975 335.243 342.133 340.498 319.457 339.653C308.118 339.23 298.336 337.283 290.772 333.85C283.209 330.417 277.882 325.509 275.406 319.168C272.93 312.826 273.523 305.607 276.758 297.958C279.995 290.308 285.87 282.248 293.922 274.254C310.027 258.267 334.799 242.588 364.424 231.021Z" stroke="url(#paint9_linear_2033_17464)"/>
<path d="M366.63 236.671C390.949 227.176 414.653 222.944 433.312 223.766C442.641 224.177 450.695 225.852 456.93 228.752C463.164 231.651 467.564 235.766 469.63 241.056C471.695 246.346 471.248 252.354 468.627 258.71C466.006 265.068 461.218 271.756 454.635 278.38C441.47 291.628 421.169 304.577 396.851 314.072C372.533 323.567 348.829 327.798 330.17 326.976C320.84 326.565 312.786 324.891 306.55 321.991C300.317 319.092 295.916 314.977 293.851 309.687C291.786 304.397 292.234 298.389 294.853 292.033C297.474 285.675 302.263 278.987 308.846 272.363C322.012 259.115 342.312 246.165 366.63 236.671Z" stroke="url(#paint10_linear_2033_17464)"/>
<path d="M370.16 245.711C388.235 238.654 405.843 235.49 419.693 236.07C426.617 236.359 432.588 237.584 437.205 239.715C441.819 241.844 445.063 244.868 446.58 248.754C448.097 252.639 447.76 257.061 445.81 261.754C443.858 266.449 440.297 271.396 435.4 276.3C425.608 286.111 410.514 295.716 392.439 302.773C374.364 309.83 356.756 312.994 342.906 312.414C335.981 312.124 330.011 310.899 325.395 308.769C320.78 306.639 317.535 303.616 316.018 299.73C314.501 295.845 314.839 291.422 316.789 286.729C318.741 282.035 322.302 277.088 327.199 272.183C336.991 262.372 352.084 252.768 370.16 245.711Z" stroke="url(#paint11_linear_2033_17464)"/>
<path d="M339.25 169.881C377.619 154.9 414.687 147.346 443.595 147.235C458.05 147.18 470.448 148.985 479.943 152.641C489.439 156.297 496.002 161.79 498.853 169.094C501.705 176.398 500.601 184.885 496.094 194.007C491.589 203.131 483.694 212.859 473.026 222.612C451.69 242.118 419.311 261.68 380.941 276.661C342.572 291.641 305.503 299.195 276.596 299.306C262.141 299.362 249.744 297.557 240.248 293.9C230.752 290.244 224.189 284.751 221.338 277.447C218.486 270.144 219.591 261.657 224.097 252.534C228.603 243.411 236.497 233.683 247.166 223.929C268.501 204.423 300.881 184.862 339.25 169.881Z" stroke="url(#paint12_linear_2033_17464)"/>
<path d="M332.949 155.412C369.448 141.161 404.516 133.478 431.7 132.57C445.294 132.116 456.899 133.356 465.722 136.304C474.548 139.252 480.546 143.893 483.013 150.211C485.48 156.53 484.213 164.007 479.72 172.156C475.229 180.302 467.534 189.077 457.229 197.954C436.62 215.706 405.624 233.817 369.126 248.067C332.627 262.318 297.56 270 270.375 270.909C256.781 271.364 245.176 270.123 236.353 267.176C227.528 264.227 221.529 259.587 219.062 253.268C216.595 246.949 217.863 239.472 222.355 231.324C226.847 223.178 234.541 214.402 244.847 205.525C265.455 187.773 296.451 169.663 332.949 155.412Z" stroke="url(#paint13_linear_2033_17464)"/>
<path d="M326.208 139.813C356.933 127.817 386.39 121.196 409.173 120.181C420.566 119.673 430.272 120.568 437.628 122.882C444.988 125.197 449.946 128.915 451.94 134.021C453.933 139.126 452.805 145.22 448.961 151.91C445.12 158.596 438.588 165.831 429.865 173.177C412.421 187.868 386.271 202.958 355.546 214.955C324.821 226.951 295.364 233.572 272.581 234.587C261.188 235.095 251.482 234.2 244.126 231.886C236.767 229.57 231.807 225.852 229.814 220.747C227.821 215.642 228.949 209.548 232.792 202.858C236.634 196.172 243.166 188.937 251.889 181.59C269.332 166.9 295.483 151.809 326.208 139.813Z" stroke="url(#paint14_linear_2033_17464)"/>
<path d="M323.526 130.443C349.023 120.488 373.391 114.797 392.17 113.638C401.562 113.058 409.539 113.613 415.554 115.323C421.576 117.034 425.576 119.884 427.125 123.851C428.674 127.818 427.663 132.625 424.394 137.964C421.128 143.297 415.638 149.11 408.338 155.047C393.741 166.919 371.964 179.245 346.467 189.201C320.969 199.156 296.602 204.847 277.822 206.006C268.431 206.586 260.455 206.031 254.439 204.321C248.417 202.61 244.417 199.76 242.868 195.793C241.319 191.826 242.33 187.019 245.599 181.68C248.865 176.346 254.355 170.534 261.654 164.597C276.251 152.724 298.028 140.399 323.526 130.443Z" stroke="url(#paint15_linear_2033_17464)"/>
<path opacity="0.2" d="M320.61 122.141C340.546 114.357 359.583 109.907 374.233 108.992C381.562 108.534 387.758 108.964 392.409 110.28C397.072 111.599 400.066 113.772 401.215 116.713C402.363 119.655 401.634 123.282 399.098 127.412C396.569 131.531 392.303 136.045 386.603 140.675C375.209 149.929 358.193 159.555 338.257 167.339C318.321 175.122 299.285 179.572 284.634 180.487C277.305 180.945 271.109 180.516 266.458 179.2C261.795 177.88 258.801 175.707 257.653 172.766C256.504 169.825 257.234 166.197 259.769 162.068C262.298 157.948 266.564 153.434 272.264 148.805C283.659 139.55 300.674 129.925 320.61 122.141Z" stroke="url(#paint16_linear_2033_17464)" stroke-width="2"/>
<path opacity="0.2" d="M320.61 122.141C340.547 114.357 359.56 109.843 374.172 108.826C381.482 108.318 387.656 108.687 392.281 109.937C396.921 111.19 399.879 113.292 400.994 116.149C402.109 119.005 401.358 122.555 398.795 126.621C396.24 130.674 391.95 135.129 386.229 139.708C374.794 148.861 357.753 158.424 337.816 166.209C317.879 173.993 298.866 178.506 284.254 179.523C276.944 180.032 270.771 179.662 266.146 178.413C261.506 177.159 258.547 175.058 257.432 172.201C256.317 169.344 257.068 165.794 259.631 161.728C262.186 157.675 266.476 153.221 272.197 148.642C283.632 139.488 300.674 129.925 320.61 122.141Z" stroke="url(#paint17_linear_2033_17464)" stroke-width="2"/>
<path opacity="0.2" d="M320.61 122.141C340.548 114.356 359.538 109.779 374.112 108.661C381.403 108.101 387.553 108.41 392.154 109.593C396.77 110.781 399.691 112.811 400.773 115.584C401.856 118.356 401.083 121.828 398.493 125.83C395.912 129.817 391.598 134.211 385.856 138.74C374.38 147.793 357.313 157.294 337.375 165.079C317.437 172.863 298.447 177.44 283.873 178.559C276.582 179.118 270.432 178.81 265.832 177.626C261.215 176.438 258.294 174.408 257.211 171.636C256.129 168.864 256.902 165.392 259.493 161.39C262.073 157.402 266.388 153.008 272.129 148.479C283.606 139.427 300.673 129.925 320.61 122.141Z" stroke="url(#paint18_linear_2033_17464)" stroke-width="2"/>
<path opacity="0.2" d="M320.61 122.141C340.549 114.356 359.516 109.716 374.052 108.495C381.324 107.884 387.451 108.133 392.025 109.25C396.62 110.373 399.504 112.331 400.553 115.019C401.602 117.706 400.809 121.1 398.19 125.039C395.583 128.96 391.245 133.295 385.483 137.773C373.966 146.725 356.873 156.164 336.934 163.949C316.995 171.734 298.028 176.374 283.492 177.594C276.22 178.205 270.093 177.956 265.518 176.839C260.924 175.717 258.04 173.759 256.991 171.071C255.941 168.383 256.735 164.989 259.354 161.051C261.961 157.13 266.299 152.795 272.061 148.316C283.578 139.365 300.671 129.926 320.61 122.141Z" stroke="url(#paint19_linear_2033_17464)" stroke-width="2"/>
<path opacity="0.2" d="M320.61 122.141C340.551 114.355 359.494 109.651 373.992 108.329C381.245 107.667 387.35 107.856 391.899 108.907C396.471 109.964 399.316 111.851 400.332 114.454C401.348 117.056 400.535 120.372 397.888 124.247C395.255 128.103 390.893 132.378 385.111 136.806C373.552 145.657 356.433 155.033 336.492 162.819C316.553 170.604 297.609 175.308 283.111 176.631C275.858 177.292 269.753 177.104 265.204 176.053C260.632 174.996 257.786 173.109 256.77 170.506C255.754 167.903 256.568 164.587 259.214 160.712C261.848 156.857 266.21 152.582 271.992 148.154C283.551 139.303 300.67 129.926 320.61 122.141Z" stroke="url(#paint20_linear_2033_17464)" stroke-width="2"/>
<path opacity="0.2" d="M320.61 122.141C340.552 114.355 359.472 109.587 373.932 108.163C381.166 107.45 387.248 107.579 391.772 108.564C396.322 109.555 399.129 111.371 400.112 113.889C401.095 116.406 400.261 119.644 397.586 123.456C394.927 127.245 390.541 131.461 384.738 135.839C373.138 144.589 355.993 153.903 336.051 161.689C316.11 169.475 297.19 174.242 282.73 175.667C275.496 176.379 269.414 176.251 264.89 175.266C260.339 174.275 257.533 172.458 256.55 169.941C255.567 167.424 256.4 164.186 259.076 160.373C261.735 156.584 266.121 152.368 271.924 147.991C283.524 139.24 300.669 129.927 320.61 122.141Z" stroke="url(#paint21_linear_2033_17464)" stroke-width="2"/>
<path opacity="0.2" d="M320.61 122.141C340.553 114.354 359.45 109.523 373.871 107.997C381.086 107.234 387.146 107.301 391.645 108.22C396.174 109.145 398.942 110.892 399.891 113.324C400.841 115.755 399.989 118.916 397.285 122.665C394.599 126.389 390.188 130.544 384.364 134.872C372.724 143.521 355.553 152.772 335.61 160.559C315.668 168.345 296.771 173.176 282.349 174.703C275.134 175.466 269.074 175.399 264.576 174.48C260.046 173.555 257.279 171.808 256.329 169.376C255.38 166.944 256.231 163.784 258.936 160.034C261.622 156.311 266.032 152.155 271.856 147.828C283.497 139.178 300.668 129.927 320.61 122.141Z" stroke="url(#paint22_linear_2033_17464)" stroke-width="2"/>
<path opacity="0.2" d="M320.61 122.141C340.554 114.354 359.427 109.459 373.811 107.831C381.007 107.017 387.044 107.024 391.517 107.877C396.026 108.736 398.755 110.413 399.671 112.759C400.586 115.104 399.716 118.187 396.982 121.874C394.27 125.532 389.835 129.628 383.991 133.905C372.31 142.454 355.113 151.642 335.169 159.429C315.226 167.216 296.352 172.111 281.968 173.739C274.772 174.553 268.735 174.546 264.262 173.693C259.753 172.834 257.024 171.157 256.108 168.811C255.193 166.465 256.063 163.383 258.797 159.696C261.509 156.038 265.944 151.942 271.788 147.665C283.469 139.116 300.667 129.927 320.61 122.141Z" stroke="url(#paint23_linear_2033_17464)" stroke-width="2"/>
<path opacity="0.2" d="M320.61 122.141C340.554 114.354 359.405 109.395 373.751 107.665C380.928 106.8 386.943 106.746 391.391 107.533C395.88 108.326 398.568 109.934 399.45 112.194C400.332 114.453 399.445 117.457 396.681 121.082C393.943 124.674 389.483 128.711 383.618 132.938C371.895 141.386 354.672 150.512 334.728 158.299C314.783 166.086 295.933 171.044 281.588 172.774C274.41 173.64 268.395 173.693 263.947 172.907C259.459 172.113 256.77 170.506 255.888 168.246C255.006 165.986 255.894 162.983 258.657 159.358C261.396 155.765 265.855 151.729 271.72 147.502C283.443 139.054 300.666 129.928 320.61 122.141Z" stroke="url(#paint24_linear_2033_17464)" stroke-width="2"/>
<path opacity="0.2" d="M320.61 122.141C340.556 114.353 359.384 109.331 373.691 107.499C380.849 106.582 386.842 106.469 391.264 107.189C395.734 107.917 398.381 109.456 399.229 111.629C400.078 113.802 399.173 116.727 396.38 120.291C393.615 123.817 389.131 127.794 383.246 131.97C371.482 140.318 354.232 149.382 334.287 157.169C314.341 164.957 295.514 169.979 281.206 171.811C274.048 172.727 268.055 172.841 263.633 172.12C259.164 171.393 256.516 169.854 255.667 167.681C254.819 165.508 255.724 162.582 258.518 159.019C261.282 155.493 265.766 151.515 271.652 147.339C283.415 138.992 300.665 129.928 320.61 122.141Z" stroke="url(#paint25_linear_2033_17464)" stroke-width="2"/>
<path d="M326.21 119.373C329.795 118.066 333.343 116.868 336.837 115.778L336.928 116.066C340.588 114.925 344.188 113.904 347.704 113.004L347.629 112.711C351.382 111.75 355.041 110.929 358.579 110.246L358.636 110.541C362.481 109.798 366.182 109.221 369.704 108.81L369.669 108.509C373.642 108.046 377.389 107.793 380.86 107.755L380.865 108.058C384.994 108.013 388.726 108.272 391.977 108.837L392.029 108.539C396.414 109.301 399.944 110.619 402.417 112.502L402.234 112.742C403.794 113.931 404.913 115.341 405.55 116.974C406.188 118.606 406.321 120.401 405.978 122.332L406.275 122.384C405.733 125.445 404.03 128.806 401.321 132.339L401.081 132.154C399.073 134.773 396.504 137.492 393.437 140.257L393.638 140.482C391.06 142.806 388.133 145.159 384.896 147.511L384.719 147.266C381.85 149.35 378.737 151.433 375.406 153.492L375.564 153.748C372.499 155.643 369.252 157.518 365.84 159.355L365.697 159.089C362.502 160.81 359.162 162.498 355.697 164.138L355.825 164.411C352.518 165.977 349.096 167.5 345.574 168.968L345.458 168.69C343.748 169.404 342.013 170.104 340.256 170.79C338.5 171.476 336.75 172.136 335.008 172.771L335.111 173.054C331.526 174.36 327.977 175.559 324.484 176.648L324.394 176.36C320.734 177.502 317.134 178.523 313.618 179.423L313.692 179.716C309.938 180.676 306.279 181.497 302.741 182.181L302.685 181.885C298.84 182.628 295.14 183.206 291.618 183.617L291.652 183.917C287.679 184.381 283.932 184.633 280.46 184.671L280.457 184.369C276.328 184.414 272.596 184.155 269.344 183.59L269.292 183.888C264.906 183.126 261.377 181.808 258.903 179.924L259.088 179.684C257.527 178.496 256.409 177.086 255.771 175.453C255.134 173.821 255.001 172.026 255.344 170.094L255.045 170.042C255.588 166.981 257.291 163.62 260 160.088L260.24 160.273C262.249 157.653 264.818 154.934 267.885 152.17L267.682 151.944C270.261 149.62 273.188 147.267 276.425 144.916L276.603 145.16C279.471 143.076 282.585 140.993 285.916 138.934L285.756 138.679C288.821 136.784 292.069 134.909 295.48 133.072L295.624 133.338C298.82 131.617 302.159 129.929 305.625 128.288L305.496 128.016C308.803 126.449 312.225 124.926 315.746 123.458L315.863 123.736C317.574 123.023 319.308 122.323 321.065 121.637C322.822 120.951 324.572 120.291 326.313 119.656L326.21 119.373Z" stroke="url(#paint26_linear_2033_17464)" stroke-dasharray="18 18"/>
<path d="M325.991 119.467C329.462 118.219 332.878 117.101 336.208 116.116L336.294 116.407C339.87 115.349 343.345 114.445 346.677 113.699L346.61 113.403C350.329 112.57 353.871 111.932 357.181 111.494L357.22 111.795C361.145 111.275 364.737 111.039 367.9 111.092L367.904 110.79C372.301 110.862 375.886 111.489 378.411 112.691L378.281 112.965C380.111 113.836 381.33 114.999 381.894 116.444C382.458 117.888 382.349 119.569 381.594 121.45L381.875 121.563C380.833 124.158 378.62 127.048 375.436 130.08L375.229 129.861C372.938 132.044 370.136 134.303 366.898 136.581L367.072 136.828C364.341 138.749 361.304 140.68 358.005 142.587L357.854 142.325C354.898 144.033 351.73 145.723 348.383 147.369L348.516 147.64C345.4 149.172 342.13 150.664 338.732 152.098L338.615 151.82C336.985 152.508 335.325 153.182 333.638 153.841C331.952 154.499 330.274 155.128 328.61 155.726L328.712 156.01C325.241 157.258 321.824 158.377 318.495 159.362L318.41 159.071C314.833 160.129 311.358 161.033 308.026 161.779L308.093 162.074C304.374 162.907 300.832 163.545 297.522 163.983L297.483 163.683C293.558 164.202 289.967 164.439 286.803 164.386L286.798 164.688C282.401 164.615 278.816 163.989 276.292 162.786L276.423 162.513C274.593 161.641 273.373 160.479 272.809 159.035C272.245 157.59 272.355 155.909 273.109 154.028L272.828 153.915C273.87 151.32 276.083 148.43 279.266 145.398L279.475 145.616C281.766 143.434 284.567 141.175 287.805 138.897L287.631 138.649C290.361 136.729 293.399 134.798 296.698 132.891L296.85 133.153C299.806 131.444 302.974 129.755 306.321 128.109L306.187 127.837C309.302 126.306 312.573 124.813 315.971 123.379L316.089 123.658C317.719 122.97 319.379 122.296 321.065 121.637C322.751 120.979 324.429 120.35 326.094 119.751L325.991 119.467Z" stroke="url(#paint27_linear_2033_17464)" stroke-dasharray="18 18"/>
<path d="M326.24 119.419C330.171 118.063 333.989 116.936 337.606 116.046L337.679 116.34C341.873 115.308 345.792 114.597 349.294 114.216L349.26 113.915C354.098 113.389 358.152 113.493 361.058 114.255L360.982 114.546C363.366 115.172 364.874 116.226 365.434 117.661C365.995 119.097 365.6 120.893 364.27 122.969L364.524 123.131C362.903 125.66 359.991 128.484 356.077 131.375L355.898 131.131C353.065 133.225 349.7 135.357 345.917 137.439L346.063 137.704C342.8 139.501 339.228 141.259 335.418 142.925L335.297 142.649C333.523 143.425 331.697 144.181 329.827 144.911C327.956 145.642 326.101 146.323 324.27 146.954L324.368 147.24C320.438 148.595 316.619 149.723 313.002 150.612L312.93 150.319C308.736 151.35 304.818 152.062 301.315 152.443L301.348 152.743C296.511 153.269 292.456 153.165 289.55 152.403L289.628 152.112C287.243 151.487 285.735 150.433 285.175 148.998C284.614 147.562 285.009 145.766 286.339 143.69L286.085 143.528C287.706 140.998 290.618 138.175 294.531 135.284L294.711 135.528C297.545 133.434 300.909 131.302 304.692 129.219L304.546 128.954C307.809 127.158 311.381 125.399 315.191 123.733L315.312 124.01C317.087 123.234 318.912 122.478 320.782 121.748C322.653 121.017 324.508 120.336 326.339 119.705L326.24 119.419Z" stroke="url(#paint28_linear_2033_17464)" stroke-dasharray="18 18"/>
<path opacity="0.6" d="M373.22 256.886C384.273 252.571 395.017 250.594 403.446 250.875C407.661 251.016 411.283 251.72 414.072 252.968C416.858 254.215 418.793 255.994 419.685 258.278C420.577 260.562 420.359 263.182 419.155 265.986C417.949 268.794 415.763 271.766 412.758 274.725C406.75 280.644 397.508 286.469 386.456 290.785C375.404 295.1 364.66 297.077 356.23 296.796C352.015 296.656 348.394 295.951 345.605 294.703C342.818 293.457 340.883 291.678 339.991 289.393C339.099 287.109 339.317 284.489 340.522 281.685C341.727 278.878 343.913 275.905 346.918 272.946C352.927 267.028 362.168 261.202 373.22 256.886Z" stroke="#63E293"/>
<path d="M341.421 172.939C358.801 166.154 375.497 162.51 388.435 162.097C394.906 161.891 400.42 162.493 404.604 163.902C408.791 165.311 411.604 167.513 412.762 170.478C413.92 173.443 413.342 176.969 411.218 180.842C409.095 184.713 405.448 188.892 400.549 193.125C390.754 201.588 376.007 210.221 358.627 217.007C341.248 223.792 324.552 227.436 311.613 227.849C305.143 228.055 299.629 227.453 295.445 226.044C291.259 224.635 288.444 222.433 287.287 219.468C286.129 216.504 286.707 212.977 288.831 209.104C290.954 205.233 294.601 201.054 299.499 196.822C309.295 188.358 324.042 179.725 341.421 172.939Z" stroke="url(#paint29_linear_2033_17464)"/>
<path d="M339.594 169.095C362.203 160.268 383.892 155.44 400.677 154.763C409.071 154.425 416.222 155.125 421.641 156.871C427.065 158.617 430.709 161.393 432.186 165.173C433.662 168.954 432.862 173.465 430.057 178.424C427.254 183.38 422.469 188.74 416.067 194.179C403.264 205.055 384.041 216.2 361.433 225.028C338.824 233.855 317.135 238.683 300.35 239.36C291.956 239.698 284.806 238.998 279.386 237.252C273.963 235.506 270.318 232.73 268.841 228.95C267.365 225.169 268.166 220.657 270.97 215.699C273.774 210.742 278.558 205.382 284.961 199.944C297.764 189.068 316.986 177.922 339.594 169.095Z" stroke="url(#paint30_linear_2033_17464)"/>
<path d="M342.4 177.116C356.813 171.488 370.676 168.513 381.431 168.245C386.809 168.112 391.393 168.656 394.876 169.87C398.36 171.086 400.703 172.958 401.678 175.457C402.654 177.957 402.2 180.921 400.462 184.175C398.723 187.428 395.72 190.934 391.674 194.48C383.583 201.571 371.372 208.776 356.959 214.404C342.546 220.031 328.684 223.006 317.929 223.274C312.55 223.407 307.966 222.864 304.484 221.649C301 220.433 298.657 218.561 297.681 216.062C296.705 213.563 297.16 210.598 298.898 207.344C300.636 204.091 303.639 200.585 307.686 197.038C315.777 189.948 327.987 182.743 342.4 177.116Z" stroke="url(#paint31_linear_2033_17464)"/>
<path d="M343.944 181.07C354.612 176.905 364.861 174.685 372.802 174.455C376.775 174.341 380.151 174.725 382.71 175.6C385.271 176.476 386.971 177.827 387.672 179.623C388.373 181.419 388.039 183.565 386.749 185.944C385.46 188.322 383.237 190.892 380.238 193.499C374.242 198.711 365.2 204.024 354.532 208.189C343.865 212.354 333.616 214.573 325.675 214.803C321.703 214.918 318.325 214.534 315.766 213.658C313.206 212.783 311.506 211.432 310.804 209.635C310.103 207.839 310.438 205.694 311.728 203.315C313.016 200.937 315.24 198.366 318.239 195.759C324.235 190.547 333.277 185.235 343.944 181.07Z" stroke="url(#paint32_linear_2033_17464)"/>
<path opacity="0.6" d="M376.467 266.037C379.793 264.738 383.023 264.164 385.55 264.274C386.814 264.33 387.887 264.555 388.705 264.935C389.522 265.315 390.068 265.839 390.322 266.487C390.575 267.136 390.528 267.891 390.185 268.724C389.84 269.557 389.204 270.451 388.312 271.348C386.528 273.141 383.763 274.908 380.438 276.206C377.112 277.505 373.882 278.079 371.354 277.969C370.091 277.913 369.018 277.687 368.199 277.308C367.383 276.928 366.836 276.404 366.583 275.756C366.33 275.107 366.377 274.352 366.72 273.519C367.065 272.685 367.701 271.792 368.593 270.895C370.377 269.101 373.141 267.335 376.467 266.037Z" stroke="#63E293"/>
<path opacity="0.6" d="M377.067 268.407C378.753 267.748 380.388 267.469 381.66 267.538C382.962 267.608 383.76 268.031 383.994 268.632C384.229 269.233 383.929 270.084 383.019 271.018C382.13 271.931 380.738 272.833 379.052 273.491C377.366 274.15 375.732 274.429 374.46 274.36C373.158 274.289 372.36 273.867 372.125 273.266C371.89 272.665 372.191 271.814 373.101 270.88C373.99 269.967 375.381 269.065 377.067 268.407Z" stroke="#63E293"/>
<path d="M214.954 390.391L224.428 414.655L213.831 421.304L194.194 406.452L185.254 383.555L194.351 374.663L214.954 390.391Z" stroke="#63E293"/>
<path d="M266.321 393.492L274.356 414.073L261.297 424.572L240.089 413.893L232.274 393.876L245.271 384.038L266.321 393.492Z" stroke="#63E293"/>
<path d="M263.374 439.266L276.775 459.644L264.865 466.18L239.161 453.292L225.578 433.283L236.335 426.258L263.374 439.266Z" stroke="#63E293"/>
<path d="M218.377 429.132L236.333 454.551L227.532 457.987L203.46 438.601L195.234 429.165L184.952 412.679L191.217 408.403L218.377 429.132Z" stroke="#00FFD5"/>
<path d="M276.518 385.411L289.937 419.781L268.203 436.166L233.228 419.689L219.687 386.643L240.721 369.266L276.518 385.411Z" stroke="#00FFD5" stroke-width="2"/>
<path d="M267.699 436.106L284.267 462.29L268.654 470.546L236.365 454.55L218.986 429.571L232.769 419.877L267.699 436.106Z" stroke="#00FFD5" stroke-width="2"/>
<path d="M170.772 274.728L173.563 271.033L176.762 279.225L174.412 284.05L170.772 274.728Z" fill="#00FFD5"/>
<path d="M183.661 269.369L187.252 264.386L190.451 272.578L186.86 277.561L183.661 269.369Z" fill="#00FFD5"/>
<path d="M187.632 279.539L191.223 274.556L194.421 282.748L190.83 287.731L187.632 279.539Z" fill="#00FFD5"/>
<path d="M179.946 275.703L183.316 270.155L186.736 278.912L183.475 284.742L179.946 275.703Z" fill="#00FFD5"/>
<path d="M183.917 285.873L187.287 280.324L190.706 289.081L187.446 294.912L183.917 285.873Z" fill="#00FFD5"/>
<path d="M192.988 305.77L196.358 300.222L199.778 308.979L196.517 314.81L192.988 305.77Z" fill="#00FFD5"/>
<path d="M173.275 291.981L175.232 286.985L178.651 295.742L176.694 300.738L173.275 291.981Z" fill="#00FFD5"/>
<path d="M179.375 296.761L181.05 291.875L184.469 300.632L182.684 305.236L179.375 296.761Z" fill="#00FFD5"/>
<path d="M177.245 302.151L179.202 297.154L182.621 305.912L180.664 310.908L177.245 302.151Z" fill="#00FFD5"/>
<path d="M181.657 313.45L183.614 308.453L187.033 317.21L185.076 322.207L181.657 313.45Z" fill="#00FFD5"/>
<path d="M446.783 104.131L455.75 102.908L459.39 112.23L450.422 113.453L446.783 104.131Z" fill="#00FFD5"/>
<path d="M455.951 125.944L464.918 124.722L468.558 134.044L459.59 135.266L455.951 125.944Z" fill="#00FFD5"/>
<path d="M457.556 102.528L466.524 101.306L470.163 110.628L461.196 111.85L457.556 102.528Z" fill="#00FFD5"/>
<path d="M449.924 273.166L460.677 267.34L465.199 278.922L454.667 285.313L449.924 273.166Z" fill="#00FFD5"/>
<path d="M455.439 287.29L466.191 281.464L470.713 293.046L460.181 299.437L455.439 287.29Z" fill="#00FFD5"/>
<path d="M443.101 294.061L453.853 288.235L458.375 299.817L447.843 306.208L443.101 294.061Z" fill="#00FFD5"/>
<path d="M458.26 333.72L468.95 328.569L472.7 338.173L462.23 343.889L458.26 333.72Z" fill="#00FFD5"/>
<path d="M440.986 116.812L449.733 115.024L453.373 124.346L444.626 126.134L440.986 116.812Z" fill="#00FFD5"/>
<path d="M445.177 127.546L453.924 125.758L457.564 135.081L448.817 136.868L445.177 127.546Z" fill="#00FFD5"/>
<path d="M449.589 138.846L458.336 137.058L461.976 146.38L453.229 148.168L449.589 138.846Z" fill="#00FFD5"/>
<path d="M459.902 171.932L468.649 170.144L472.288 179.466L463.542 181.254L459.902 171.932Z" fill="#00FFD5"/>
<path d="M438.754 141.123L447.28 138.771L450.699 147.528L442.173 149.88L438.754 141.123Z" fill="#63E293" fill-opacity="0.6"/>
<path d="M442.945 151.857L451.471 149.505L454.89 158.262L446.364 160.614L442.945 151.857Z" fill="#00FFD5"/>
<path d="M196.96 342.634L198.745 338.03L202.791 345.891L201.006 350.495L196.96 342.634Z" fill="#00FFD5"/>
<path d="M177.313 280.638L179.774 276.096L183.303 285.135L180.953 289.96L177.313 280.638Z" fill="#00FFD5"/>
<path d="M185.82 300.756L188.28 296.214L191.81 305.254L189.459 310.078L185.82 300.756Z" fill="#00FFD5"/>
<path d="M190.355 310.705L192.816 306.163L196.345 315.203L193.995 320.027L190.355 310.705Z" fill="#00FFD5"/>
<path d="M209.993 313.455L213.646 307.796L216.844 315.988L213.081 321.364L209.993 313.455Z" fill="#00FFD5"/>
<path d="M224.206 324.834L228.08 319.74L232.299 327.209L228.928 332.757L224.206 324.834Z" fill="#00FFD5"/>
<path d="M229.934 333.666L233.808 328.572L238.027 336.041L234.656 341.589L229.934 333.666Z" fill="#00FFD5"/>
<path d="M228.818 319.127L232.691 314.033L236.91 321.502L233.54 327.05L228.818 319.127Z" fill="#00FFD5"/>
<path d="M203.798 346.801L205.645 341.523L210.428 348.77L208.581 354.049L203.798 346.801Z" fill="#00FFD5"/>
<path d="M214.019 343.787L216.824 338.459L221.043 345.927L218.348 351.537L214.019 343.787Z" fill="#00FFD5"/>
<path d="M211.435 349.679L213.926 344.235L218.145 351.703L216.157 357.602L211.435 349.679Z" fill="#00FFD5"/>
<path d="M221.768 373.642L223.332 368.474L229.012 376.348L227.275 381.909L221.768 373.642Z" fill="#00FFD5"/>
<path d="M215.555 364.283L218.046 358.838L222.265 366.306L220.277 372.205L215.555 364.283Z" fill="#00FFD5"/>
<path d="M202.171 352.645L204.018 347.366L208.802 354.614L206.955 359.893L202.171 352.645Z" fill="#00FFD5"/>
<path d="M231.665 348.943L235.146 343.677L240.385 350.421L237.014 355.969L231.665 348.943Z" fill="#00FFD5"/>
<path d="M227.84 354.993L231.32 349.728L236.559 356.472L233.189 362.02L227.84 354.993Z" fill="#00FFD5"/>
<path d="M223.089 310.295L227.983 304.478L231.292 312.952L226.729 319.617L223.089 310.295Z" fill="#00FFD5"/>
<path d="M173.957 270.375L177.092 266.726L179.85 273.788L177.106 278.44L173.957 270.375Z" fill="#00FFD5"/>
<path d="M353.387 377.922L372.796 360.902L400.823 364.284L408.874 384.905L389.761 400.181L362.458 397.819L353.387 377.922Z" fill="#00FFD5"/>
<path d="M401.891 364.518L420.198 344.674L446.053 344.997L453.773 364.771L434.053 385.166L409.611 384.292L401.891 364.518Z" fill="#00FFD5"/>
<path d="M411.229 319.202L428.777 295.747L455.942 301.093L463.773 321.149L446.68 344.101L420.714 343.495L411.229 319.202Z" fill="#00FFD5"/>
<path d="M232.988 325.637L232.781 310.092L239.66 309.359L249.779 325.267L252.233 341.563L244.382 343.977L232.988 325.637Z" fill="#00FFD5"/>
<path d="M366.464 216.226L378.374 203.763L397.585 206.68L404.313 223.911L391.849 236.591L373.192 233.458L366.464 216.226Z" fill="#00FFD5"/>
<path d="M336.384 229.273L347.771 215.061L365.616 216.558L372.234 233.507L360.454 247.547L342.781 245.658L336.384 229.273Z" fill="#00FFD5"/>
<path d="M310.777 212.901L322.728 198.468L341.029 199.462L347.095 214.999L336.163 228.708L316.843 228.438L310.777 212.901Z" fill="#00FFD5"/>
<path d="M235.131 248.546L242.948 268.567L236.22 289.172L221.647 290.75L213.829 270.727L220.278 250.232L235.131 248.546Z" stroke="#00FFD5"/>
<path d="M231.906 256.97L236.633 269.077L232.458 281.206L223.901 282.373L218.622 270.48L222.688 258.08L231.906 256.97Z" stroke="#63E293"/>
<path d="M259.139 233.295L264.419 246.819L257.998 261.456L245.547 261.901L239.718 248.6L247.359 233.799L259.139 233.295Z" stroke="#63E293"/>
<path d="M260.293 267.043L270.623 286.104L264.076 306.286L247.335 307.416L237.058 289.307L243.56 268.171L260.293 267.043Z" stroke="#00FFD5"/>
<path d="M258.616 271.922L266.288 285.845L261.24 301.539L248.163 302.854L240.058 287.821L245.487 272.307L258.616 271.922Z" stroke="#63E293"/>
<path d="M442.109 170.57L446.167 180.962L437.798 187.683L426.232 183.301L421.895 173.002L429.428 166.616L442.109 170.57Z" stroke="#63E293"/>
<path d="M446.601 166.214L454.302 184.3L440.77 195.313L420.719 188.375L413.066 171.231L426 159.495L446.601 166.214Z" stroke="#00FFD5"/>
<path d="M471.14 192.404L476.96 212.233L463.71 223.134L446.168 214.297L440.955 195.203L454.319 184.573L471.14 192.404Z" stroke="#00FFD5"/>
<path d="M469.251 195.089L472.927 210.217L463.242 217.791L448.73 211.661L445.44 196.709L455.301 188.747L469.251 195.089Z" stroke="#63E293"/>
<path d="M474.628 167.941L480.456 182.868L473.74 187.978L467.056 185.506L457.529 180.87L452.687 168.468L460.662 161.593L474.628 167.941Z" stroke="#63E293"/>
<path d="M289.483 245.877L299.691 264.635L290.09 284.418L270.737 285.586L260.588 266.16L270.403 246.938L289.483 245.877Z" stroke="#00FFD5"/>
<path d="M283.801 257.213L287.416 264.87L283.585 273.603L274.955 273.855L270.742 265.474L275.647 257.902L283.801 257.213Z" stroke="#63E293"/>
</g>
</g>
<rect x="0.5" y="0.5" width="459" height="418" rx="15.5" stroke="#00FFD5"/>
<defs>
<radialGradient id="paint0_radial_2033_17464" cx="0" cy="0" r="1" gradientUnits="userSpaceOnUse" gradientTransform="translate(422 129.5) rotate(141.412) scale(313.441 344.112)">
<stop stop-color="#00FFD5"/>
<stop offset="1" stop-color="#061917"/>
</radialGradient>
<linearGradient id="paint1_linear_2033_17464" x1="367.386" y1="173.545" x2="151.052" y2="368.451" gradientUnits="userSpaceOnUse">
<stop stop-color="#63E293"/>
<stop offset="1" stop-color="#182023"/>
</linearGradient>
<linearGradient id="paint2_linear_2033_17464" x1="390.912" y1="403.964" x2="628.82" y2="245.914" gradientUnits="userSpaceOnUse">
<stop stop-color="#00FFD5"/>
<stop offset="1" stop-color="#182023"/>
</linearGradient>
<linearGradient id="paint3_linear_2033_17464" x1="402.414" y1="329.155" x2="471.458" y2="505.991" gradientUnits="userSpaceOnUse">
<stop stop-color="#63E293" stop-opacity="0.2"/>
<stop offset="1" stop-color="#63E293"/>
</linearGradient>
<linearGradient id="paint4_linear_2033_17464" x1="418.613" y1="372.313" x2="435.819" y2="416.381" gradientUnits="userSpaceOnUse">
<stop stop-color="#63E293" stop-opacity="0.2"/>
<stop offset="1" stop-color="#63E293"/>
</linearGradient>
<linearGradient id="paint5_linear_2033_17464" x1="421.701" y1="380.222" x2="434.937" y2="414.121" gradientUnits="userSpaceOnUse">
<stop stop-color="#63E293" stop-opacity="0.2"/>
<stop offset="1" stop-color="#63E293"/>
</linearGradient>
<linearGradient id="paint6_linear_2033_17464" x1="380.389" y1="275.248" x2="429.801" y2="401.802" gradientUnits="userSpaceOnUse">
<stop stop-color="#63E293" stop-opacity="0.2"/>
<stop offset="1" stop-color="#63E293"/>
</linearGradient>
<linearGradient id="paint7_linear_2033_17464" x1="372.765" y1="257.389" x2="424.162" y2="389.028" gradientUnits="userSpaceOnUse">
<stop stop-color="#63E293" stop-opacity="0.2"/>
<stop offset="1" stop-color="#63E293"/>
</linearGradient>
<linearGradient id="paint8_linear_2033_17464" x1="357.889" y1="217.621" x2="406.198" y2="341.35" gradientUnits="userSpaceOnUse">
<stop stop-color="#63E293" stop-opacity="0.2"/>
<stop offset="1" stop-color="#63E293"/>
</linearGradient>
<linearGradient id="paint9_linear_2033_17464" x1="364.314" y1="230.739" x2="400.711" y2="323.959" gradientUnits="userSpaceOnUse">
<stop stop-color="#00FFD5" stop-opacity="0.2"/>
<stop offset="1" stop-color="#00FFD5"/>
</linearGradient>
<linearGradient id="paint10_linear_2033_17464" x1="366.52" y1="236.388" x2="396.961" y2="314.354" gradientUnits="userSpaceOnUse">
<stop stop-color="#00FFD5" stop-opacity="0.2"/>
<stop offset="1" stop-color="#00FFD5"/>
</linearGradient>
<linearGradient id="paint11_linear_2033_17464" x1="370.049" y1="245.428" x2="392.549" y2="303.055" gradientUnits="userSpaceOnUse">
<stop stop-color="#00FFD5" stop-opacity="0.2"/>
<stop offset="1" stop-color="#00FFD5"/>
</linearGradient>
<linearGradient id="paint12_linear_2033_17464" x1="339.14" y1="169.599" x2="381.051" y2="276.943" gradientUnits="userSpaceOnUse">
<stop stop-color="#63E293" stop-opacity="0.2"/>
<stop offset="1" stop-color="#63E293"/>
</linearGradient>
<linearGradient id="paint13_linear_2033_17464" x1="332.839" y1="155.129" x2="369.236" y2="248.35" gradientUnits="userSpaceOnUse">
<stop stop-color="#63E293" stop-opacity="0.2"/>
<stop offset="1" stop-color="#63E293"/>
</linearGradient>
<linearGradient id="paint14_linear_2033_17464" x1="326.097" y1="139.531" x2="355.656" y2="215.237" gradientUnits="userSpaceOnUse">
<stop stop-color="#63E293" stop-opacity="0.2"/>
<stop offset="1" stop-color="#63E293"/>
</linearGradient>
<linearGradient id="paint15_linear_2033_17464" x1="323.416" y1="130.161" x2="346.577" y2="189.483" gradientUnits="userSpaceOnUse">
<stop stop-color="#63E293" stop-opacity="0.2"/>
<stop offset="1" stop-color="#63E293"/>
</linearGradient>
<linearGradient id="paint16_linear_2033_17464" x1="257.087" y1="172.987" x2="401.78" y2="116.493" gradientUnits="userSpaceOnUse">
<stop stop-color="#63E293" stop-opacity="0.2"/>
<stop offset="1" stop-color="#63E293"/>
</linearGradient>
<linearGradient id="paint17_linear_2033_17464" x1="256.867" y1="172.422" x2="401.559" y2="115.928" gradientUnits="userSpaceOnUse">
<stop stop-color="#63E293" stop-opacity="0.2"/>
<stop offset="1" stop-color="#63E293"/>
</linearGradient>
<linearGradient id="paint18_linear_2033_17464" x1="256.646" y1="171.857" x2="401.339" y2="115.363" gradientUnits="userSpaceOnUse">
<stop stop-color="#63E293" stop-opacity="0.2"/>
<stop offset="1" stop-color="#63E293"/>
</linearGradient>
<linearGradient id="paint19_linear_2033_17464" x1="256.426" y1="171.292" x2="401.118" y2="114.798" gradientUnits="userSpaceOnUse">
<stop stop-color="#63E293" stop-opacity="0.2"/>
<stop offset="1" stop-color="#63E293"/>
</linearGradient>
<linearGradient id="paint20_linear_2033_17464" x1="256.205" y1="170.727" x2="400.897" y2="114.233" gradientUnits="userSpaceOnUse">
<stop stop-color="#63E293" stop-opacity="0.2"/>
<stop offset="1" stop-color="#63E293"/>
</linearGradient>
<linearGradient id="paint21_linear_2033_17464" x1="255.984" y1="170.162" x2="400.677" y2="113.668" gradientUnits="userSpaceOnUse">
<stop stop-color="#63E293" stop-opacity="0.2"/>
<stop offset="1" stop-color="#63E293"/>
</linearGradient>
<linearGradient id="paint22_linear_2033_17464" x1="255.764" y1="169.597" x2="400.456" y2="113.103" gradientUnits="userSpaceOnUse">
<stop stop-color="#63E293" stop-opacity="0.2"/>
<stop offset="1" stop-color="#63E293"/>
</linearGradient>
<linearGradient id="paint23_linear_2033_17464" x1="255.543" y1="169.032" x2="400.236" y2="112.538" gradientUnits="userSpaceOnUse">
<stop stop-color="#63E293" stop-opacity="0.2"/>
<stop offset="1" stop-color="#63E293"/>
</linearGradient>
<linearGradient id="paint24_linear_2033_17464" x1="255.323" y1="168.467" x2="400.015" y2="111.973" gradientUnits="userSpaceOnUse">
<stop stop-color="#63E293" stop-opacity="0.2"/>
<stop offset="1" stop-color="#63E293"/>
</linearGradient>
<linearGradient id="paint25_linear_2033_17464" x1="255.102" y1="167.902" x2="399.795" y2="111.408" gradientUnits="userSpaceOnUse">
<stop stop-color="#63E293" stop-opacity="0.2"/>
<stop offset="1" stop-color="#63E293"/>
</linearGradient>
<linearGradient id="paint26_linear_2033_17464" x1="320.955" y1="121.355" x2="340.367" y2="171.072" gradientUnits="userSpaceOnUse">
<stop stop-color="#63E293" stop-opacity="0.2"/>
<stop offset="1" stop-color="#63E293"/>
</linearGradient>
<linearGradient id="paint27_linear_2033_17464" x1="320.955" y1="121.355" x2="333.749" y2="154.123" gradientUnits="userSpaceOnUse">
<stop stop-color="#63E293" stop-opacity="0.2"/>
<stop offset="1" stop-color="#63E293"/>
</linearGradient>
<linearGradient id="paint28_linear_2033_17464" x1="320.672" y1="121.465" x2="329.937" y2="145.194" gradientUnits="userSpaceOnUse">
<stop stop-color="#63E293" stop-opacity="0.2"/>
<stop offset="1" stop-color="#63E293"/>
</linearGradient>
<linearGradient id="paint29_linear_2033_17464" x1="341.311" y1="172.657" x2="358.737" y2="217.29" gradientUnits="userSpaceOnUse">
<stop stop-color="#00FFD5" stop-opacity="0.2"/>
<stop offset="1" stop-color="#00FFD5"/>
</linearGradient>
<linearGradient id="paint30_linear_2033_17464" x1="339.484" y1="168.813" x2="361.543" y2="225.31" gradientUnits="userSpaceOnUse">
<stop stop-color="#00FFD5" stop-opacity="0.2"/>
<stop offset="1" stop-color="#00FFD5"/>
</linearGradient>
<linearGradient id="paint31_linear_2033_17464" x1="342.29" y1="176.833" x2="357.069" y2="214.686" gradientUnits="userSpaceOnUse">
<stop stop-color="#00FFD5" stop-opacity="0.2"/>
<stop offset="1" stop-color="#00FFD5"/>
</linearGradient>
<linearGradient id="paint32_linear_2033_17464" x1="343.834" y1="180.788" x2="354.643" y2="208.471" gradientUnits="userSpaceOnUse">
<stop stop-color="#00FFD5" stop-opacity="0.2"/>
<stop offset="1" stop-color="#00FFD5"/>
</linearGradient>
<clipPath id="clip0_2033_17464">
<rect width="460" height="419" rx="16" fill="white"/>
</clipPath>
<clipPath id="clip1_2033_17464">
<rect width="503.609" height="413.032" fill="white" transform="translate(85.9126 213.125) rotate(-21.3277)"/>
</clipPath>
</defs>
</svg>
