<svg width="941" height="243" viewBox="0 0 941 243" fill="none" xmlns="http://www.w3.org/2000/svg">
<path d="M143.539 99.0238V144.839L102.596 169.236L64.655 144.964V97.4154L106.393 75.5648L143.539 99.0238Z" stroke="white" stroke-width="12"/>
<path d="M202.901 65.3563L176.018 85.5184L138.272 61.3377L135.262 59.409L132.134 61.1385L64.655 98.4364V64.0389L133.392 24.0409L202.901 65.3563Z" stroke="white" stroke-width="12"/>
<path d="M200.747 177.223L177.753 190.778L177.661 190.832L177.573 190.889L143.817 212.427L104.21 235.954L76.9993 218.575L175.267 157.482L200.747 177.223Z" stroke="white" stroke-width="12"/>
<path d="M6.24707 176.14L9.16016 177.888L55.0088 205.397L6 177.625V64.8568L6.24707 64.6693V176.14ZM12.6924 61.2211L9.78418 62.5297L8.02441 63.3207L12.6924 59.7797V61.2211Z" stroke="white" stroke-width="12"/>
<path d="M134.657 24.627L103.016 44.1172L68.687 62.7266L65.5464 64.4287V144.548L68.3306 146.315L104.378 169.203L76.3101 189.553L35.6499 161.23V46.958L104.412 6.94531L134.657 24.627Z" stroke="white" stroke-width="12"/>
<rect x="286.774" y="61.3497" width="120.887" height="120.887" rx="21" stroke="white" stroke-width="18"/>
<rect x="397.431" y="84.4006" width="19.2305" height="74.7854" fill="#182023"/>
<rect x="479.079" y="61.3497" width="120.887" height="120.887" rx="21" stroke="white" stroke-width="18"/>
<rect x="700.845" y="52.3497" width="19.2305" height="138.887" rx="2" fill="white"/>
<rect x="641.017" y="71.5803" width="19.2305" height="138.887" rx="2" transform="rotate(-90 641.017 71.5803)" fill="white"/>
<rect x="836.528" y="155.981" width="19.2305" height="68.3752" transform="rotate(-90 836.528 155.981)" fill="white"/>
<path d="M868.926 55.9275C869.663 54.4534 871.767 54.4534 872.504 55.9275L938.712 188.342C939.377 189.672 938.41 191.237 936.923 191.237H922.164C921.407 191.237 920.714 190.809 920.376 190.131L872.504 94.3885C871.767 92.9144 869.663 92.9144 868.926 94.3885L821.055 190.131C820.716 190.809 820.024 191.237 819.266 191.237H804.508C803.021 191.237 802.054 189.672 802.719 188.342L868.926 55.9275Z" fill="white"/>
</svg>
