<?xml version="1.0" encoding="utf-8"?><svg viewBox="0 0 24 24" xmlns="http://www.w3.org/2000/svg" xmlns:xlink="http://www.w3.org/1999/xlink"><style>:root>svg{display:none}:root>svg:target{display:block}</style><svg viewBox="0 0 24 24" id="map" xmlns="http://www.w3.org/2000/svg"><g filter="url(#aa)" stroke-linecap="round" stroke-linejoin="round" shape-rendering="crispEdges"><path d="M20 10c0 4.993-5.539 10.193-7.399 11.799a1 1 0 01-1.202 0C9.539 20.193 4 14.993 4 10a8 8 0 1116 0z"/><path d="M12 13a3 3 0 100-6 3 3 0 000 6z"/></g><defs><filter id="aa" x="-6.5" y="-8.5" width="37" height="41" filterUnits="userSpaceOnUse" color-interpolation-filters="sRGB"><feFlood flood-opacity="0" result="BackgroundImageFix"/><feColorMatrix in="SourceAlpha" values="0 0 0 0 0 0 0 0 0 0 0 0 0 0 0 0 0 0 127 0" result="hardAlpha"/><feOffset/><feGaussianBlur stdDeviation="5"/><feComposite in2="hardAlpha" operator="out"/><feColorMatrix values="0 0 0 0 0.388235 0 0 0 0 0.886275 0 0 0 0 0.576471 0 0 0 1 0"/><feBlend in2="BackgroundImageFix" result="effect1_dropShadow_2002_553"/><feBlend in="SourceGraphic" in2="effect1_dropShadow_2002_553" result="shape"/></filter></defs></svg><svg viewBox="0 0 17 15" id="telegram" xmlns="http://www.w3.org/2000/svg"><path d="M16.15.512l-2.555 13.336s-.357.925-1.339.482L6.362 9.65l-.027-.014c.796-.74 6.97-6.489 7.24-6.75.417-.403.158-.643-.327-.338l-9.12 5.997L.61 7.319s-.554-.204-.607-.647c-.054-.444.625-.685.625-.685L14.971.161s1.179-.537 1.179.35z"/></svg><svg viewBox="0 0 18 20" id="viber" xmlns="http://www.w3.org/2000/svg"><path d="M13.816.464a26.336 26.336 0 00-9.844 0C2.539.774.732 2.506.42 3.867c-.56 2.66-.56 5.383 0 8.043.373 1.361 2.18 3.094 3.55 3.403.063 0 .125.062.125.124v3.897c0 .186.25.31.374.124l1.87-1.918s1.495-1.546 1.744-1.794c0 0 .062-.062.125-.062 1.869.062 3.8-.124 5.67-.433 1.432-.31 3.239-2.042 3.55-3.403.561-2.66.561-5.383 0-8.043-.373-1.3-2.18-3.032-3.613-3.341zm.062 11.632c-.311.618-.685 1.113-1.308 1.423l-.561.185a7.882 7.882 0 01-.623-.185c-1.994-.805-3.863-1.918-5.358-3.527a14.88 14.88 0 01-2.056-3.093c-.25-.557-.499-1.052-.685-1.61-.187-.494.124-.989.436-1.36.311-.371.685-.619 1.121-.805.312-.185.623-.061.872.186.499.619.997 1.237 1.371 1.918.25.433.187.928-.25 1.237-.124.062-.186.124-.31.248-.063.062-.188.124-.25.247a.598.598 0 00-.062.557c.498 1.423 1.433 2.537 2.866 3.156.249.123.436.185.747.185.437-.062.623-.557.935-.804.312-.248.685-.248 1.06-.062.31.186.622.433.996.68.311.248.623.434.934.681.187.124.25.433.125.743zm-2.617-4.64c-.124 0-.062 0 0 0-.249 0-.311-.124-.373-.31 0-.124 0-.31-.063-.433a1.175 1.175 0 00-.436-.68c-.124-.063-.25-.124-.374-.186-.187-.062-.311-.062-.498-.062-.187-.062-.25-.186-.25-.371 0-.124.188-.248.312-.248.997.062 1.745.619 1.87 1.794v.248c0 .124-.063.247-.188.247zm-.623-2.723c-.311-.124-.623-.247-.997-.31-.124 0-.311-.061-.436-.061-.187 0-.311-.124-.249-.31 0-.185.125-.309.312-.247.623.062 1.183.186 1.744.433 1.122.557 1.745 1.485 1.932 2.722v.805c-.063.247-.499.31-.561 0 0-.062-.063-.186-.063-.248a3.59 3.59 0 00-.373-1.608c-.374-.557-.81-.928-1.309-1.176zm3.365 3.712c-.187 0-.312-.185-.312-.37 0-.372-.062-.743-.124-1.115-.25-1.98-1.87-3.588-3.8-3.897C9.454 3 9.142 3 8.893 2.939c-.187 0-.436 0-.499-.248-.062-.185.125-.37.312-.37h.125c.124 0 2.554.061 0 0 2.616.061 4.797 1.793 5.233 4.392.062.433.125.866.125 1.361.124.186 0 .371-.187.371z"/></svg><svg viewBox="0 0 18 18" id="whatsapp" xmlns="http://www.w3.org/2000/svg"><path d="M15.238 2.603A8.864 8.864 0 008.956 0C4.043 0 .062 3.967.062 8.863a8.96 8.96 0 001.182 4.4L0 17.85l4.727-1.24a9.093 9.093 0 004.23 1.054c4.912 0 8.893-3.967 8.893-8.863-.062-2.293-.933-4.524-2.612-6.198zm-1.99 9.421c-.187.496-1.058.992-1.493 1.054-.373.062-.87.062-1.368-.062-.311-.124-.747-.248-1.244-.496-2.24-.93-3.67-3.161-3.794-3.347-.125-.124-.933-1.178-.933-2.293 0-1.116.56-1.612.746-1.86.187-.248.436-.248.622-.248h.436c.124 0 .31-.062.497.372s.622 1.55.684 1.612a.394.394 0 010 .372 1.265 1.265 0 01-.249.371c-.124.124-.248.31-.31.372-.125.124-.25.248-.125.434.124.248.56.93 1.244 1.55.87.743 1.555.991 1.804 1.115.248.124.373.062.497-.062.125-.124.56-.62.684-.867.125-.248.311-.186.498-.124.186.062 1.306.62 1.493.743.248.124.373.186.435.248.062.186.062.62-.124 1.116z"/></svg></svg>